<svg width="30" height="30" viewBox="0 0 30 30" fill="none" xmlns="http://www.w3.org/2000/svg">
<g clip-path="url(#clip0_15_7858)">
<path d="M15 0C6.71566 0 0 6.71566 0 15C0 23.2843 6.71566 30 15 30C23.2843 30 30 23.2843 30 15C30 6.71566 23.2843 0 15 0Z" fill="#40B3E0"/>
<path d="M22.2989 8.62861L19.6198 22.1365C19.6198 22.1365 19.2451 23.0733 18.2147 22.6236L12.0321 17.8836L9.78401 16.797L5.99956 15.523C5.99956 15.523 5.41878 15.317 5.36253 14.8673C5.3064 14.4177 6.01831 14.1742 6.01831 14.1742L21.0624 8.27259C21.0624 8.27259 22.2989 7.72931 22.2989 8.62861Z" fill="white"/>
<path d="M11.5561 21.9848C11.5561 21.9848 11.3757 21.9679 11.1508 21.2559C10.926 20.544 9.7832 16.797 9.7832 16.797L18.8696 11.0267C18.8696 11.0267 19.3942 10.7082 19.3755 11.0267C19.3755 11.0267 19.4691 11.0828 19.1881 11.3451C18.9071 11.6075 12.0501 17.7712 12.0501 17.7712" fill="#D2E5F1"/>
<path d="M14.4024 19.701L11.957 21.9306C11.957 21.9306 11.7658 22.0757 11.5566 21.9848L12.0249 17.8433" fill="#B5CFE4"/>
</g>
<defs>
<clipPath id="clip0_15_7858">
<rect width="30" height="30" fill="white"/>
</clipPath>
</defs>
</svg>
